# Wavefront Obj file
# 
# verts: 201 uv-s: 369
mtllib Floor.03.mtl

g Cube.001_Cube.010
#pivot 0.000000 0.000000 0.000000

v 0.000000 0.000000 -5.000000
v 0.000000 0.500000 -5.000000
v 0.000000 0.000000 5.000000
v 0.000000 0.500000 5.000000
v 0.000000 0.500000 -4.500000
v 0.000000 0.500000 4.500000
v 0.000000 0.400000 -4.500000
v 0.000000 0.400000 4.500000
v 0.000000 0.400000 -4.250000
v 0.000000 0.400000 4.250000
v -5.000000 0.000000 0.000000
v -5.000000 0.500000 0.000000
v 5.000000 0.000000 0.000000
v 5.000000 0.500000 0.000000
v -4.500000 0.500000 0.000000
v 4.500000 0.500000 0.000000
v -4.500000 0.400000 0.000000
v 4.500000 0.400000 0.000000
v -4.250000 0.400000 0.000000
v 4.250000 0.400000 0.000000
v 0.000000 0.500000 -4.250000
v 0.000000 0.500000 4.250000
v -4.250000 0.500000 0.000000
v 4.250000 0.500000 0.000000
v -4.495043 0.000000 5.000000
v -5.000000 0.000000 4.495043
v -3.995043 0.500000 4.500000
v -4.500000 0.500000 3.995043
v -5.000000 0.000000 -4.495043
v -4.495043 0.000000 -5.000000
v -4.500000 0.500000 -3.995043
v -3.995043 0.500000 -4.500000
v 5.000000 0.000000 4.495043
v 4.495043 0.000000 5.000000
v 4.500000 0.500000 3.995043
v 3.995043 0.500000 4.500000
v 4.495043 0.000000 -5.000000
v 5.000000 0.000000 -4.495043
v 3.995043 0.500000 -4.500000
v 4.500000 0.500000 -3.995043
v -4.495043 0.500000 5.000000
v -5.000000 0.500000 4.495043
v -5.000000 0.500000 -4.495043
v -4.495043 0.500000 -5.000000
v 4.495043 0.500000 -5.000000
v 5.000000 0.500000 -4.495043
v 5.000000 0.500000 4.495043
v 4.495043 0.500000 5.000000
v -3.995043 0.400000 4.500000
v -4.500000 0.400000 3.995043
v -4.500000 0.400000 -3.995043
v -3.995043 0.400000 -4.500000
v 3.995043 0.400000 -4.500000
v 4.500000 0.400000 -3.995043
v 4.500000 0.400000 3.995043
v 3.995043 0.400000 4.500000
v -3.745043 0.400000 4.250000
v -4.250000 0.400000 3.745043
v 3.745043 0.400000 -4.250000
v 4.250000 0.400000 -3.745043
v -4.250000 0.400000 -3.745043
v -3.745043 0.400000 -4.250000
v 4.250000 0.400000 3.745043
v 3.745043 0.400000 4.250000
v 3.745043 0.500000 -4.250000
v 4.250000 0.500000 -3.745043
v -4.250000 0.500000 3.745043
v -3.745043 0.500000 4.250000
v 4.000000 0.500000 -3.500000
v 3.500000 0.500000 -4.000000
v -3.500000 0.500000 -4.000000
v -4.000000 0.500000 -3.500000
v 3.500000 0.500000 4.000000
v 4.000000 0.500000 3.500000
v -4.250000 0.500000 -3.745043
v -3.745043 0.500000 -4.250000
v 3.745043 0.500000 4.250000
v 4.250000 0.500000 3.745043
v -4.000000 0.500000 3.500000
v -3.500000 0.500000 4.000000
v -4.445539 0.590000 4.849504
v -4.849504 0.590000 4.445539
v -4.849504 0.590000 -4.445539
v -4.445539 0.590000 -4.849504
v 4.445539 0.590000 -4.849504
v 4.849504 0.590000 -4.445539
v 4.849504 0.590000 4.445539
v 4.445539 0.590000 4.849504
v -4.045539 0.590000 4.449504
v -4.449504 0.590000 4.045539
v -4.449504 0.590000 -4.045539
v -4.045539 0.590000 -4.449504
v 4.045539 0.590000 -4.449504
v 4.449504 0.590000 -4.045539
v 4.449504 0.590000 4.045539
v 4.045539 0.590000 4.449504
v 4.045539 0.510000 -4.449504
v 4.449504 0.510000 -4.045539
v 4.449504 0.510000 4.045539
v 4.045539 0.510000 4.449504
v -4.045539 0.510000 4.449504
v -4.449504 0.510000 4.045539
v -4.449504 0.510000 -4.045539
v -4.045539 0.510000 -4.449504
v -3.845539 0.510000 4.249504
v -4.249504 0.510000 3.845539
v 3.845539 0.510000 -4.249504
v 4.249504 0.510000 -3.845539
v -4.249504 0.510000 -3.845539
v -3.845539 0.510000 -4.249504
v 4.249504 0.510000 3.845539
v 3.845539 0.510000 4.249504
v -4.249504 0.590000 -3.845539
v -3.845539 0.590000 -4.249504
v 3.845539 0.590000 -4.249504
v 4.249504 0.590000 -3.845539
v 4.049504 0.590000 3.645539
v 3.645539 0.590000 4.049504
v 3.845539 0.590000 4.249504
v 4.249504 0.590000 3.845539
v 3.645539 0.590000 -4.049504
v 4.049504 0.590000 -3.645539
v -4.049504 0.590000 -3.645539
v -3.645539 0.590000 -4.049504
v -4.249504 0.590000 3.845539
v -3.845539 0.590000 4.249504
v -3.645539 0.590000 4.049504
v -4.049504 0.590000 3.645539
v -3.500000 0.400000 -3.500000
v -3.500000 0.400000 0.000000
v 0.000000 0.400000 -3.500000
v 3.500000 0.400000 0.000000
v 0.000000 0.400000 3.500000
v 3.500000 0.400000 3.500000
v -3.500000 0.400000 3.500000
v 3.500000 0.400000 -3.500000
v 0.000000 0.400000 0.000000
v 0.350000 0.500000 3.150000
v 3.150000 0.500000 3.150000
v 3.150000 0.500000 0.350000
v 0.350000 0.500000 0.350000
v 3.150000 0.500000 -0.350000
v 3.150000 0.500000 -3.150000
v 0.350000 0.500000 -0.350000
v 0.350000 0.500000 -3.150000
v -3.150000 0.500000 -3.150000
v -0.350000 0.500000 -3.150000
v -0.350000 0.500000 -0.350000
v -3.150000 0.500000 -0.350000
v -3.150000 0.500000 0.350000
v -3.150000 0.500000 3.150000
v -0.350000 0.500000 0.350000
v -0.350000 0.500000 3.150000
v -3.000000 0.500000 4.000000
v -3.997521 0.000000 5.000000
v -3.497522 0.500000 4.500000
v -3.997521 0.500000 5.000000
v -3.497522 0.400000 4.500000
v -3.247522 0.400000 4.250000
v -3.247522 0.500000 4.250000
v 5.000000 0.000000 3.997521
v 4.500000 0.500000 3.497522
v 5.000000 0.500000 3.997521
v 4.500000 0.400000 3.497522
v 4.250000 0.400000 3.247522
v -4.000000 0.500000 -3.000000
v 4.250000 0.500000 3.247522
v 3.997521 0.000000 -5.000000
v 3.497522 0.500000 -4.500000
v 3.997521 0.500000 -5.000000
v 3.497522 0.400000 -4.500000
v 3.247522 0.400000 -4.250000
v 3.247522 0.500000 -4.250000
v 4.000000 0.500000 3.000000
v -5.000000 0.000000 -3.997521
v -4.500000 0.500000 -3.497522
v -5.000000 0.500000 -3.997521
v -4.500000 0.400000 -3.497522
v -4.250000 0.400000 -3.247522
v 3.000000 0.500000 -4.000000
v -4.250000 0.500000 -3.247522
v 4.000000 0.500000 0.000000
v 0.000000 0.500000 4.000000
v -4.000000 0.500000 0.000000
v 0.000000 0.500000 -4.000000
v 4.000000 0.400000 -3.500000
v 3.500000 0.400000 -4.000000
v -3.500000 0.400000 -4.000000
v -4.000000 0.400000 -3.500000
v 3.500000 0.400000 4.000000
v 4.000000 0.400000 3.500000
v -4.000000 0.400000 3.500000
v -3.500000 0.400000 4.000000
v -3.000000 0.400000 4.000000
v -4.000000 0.400000 -3.000000
v 4.000000 0.400000 3.000000
v 3.000000 0.400000 -4.000000
v 4.000000 0.400000 0.000000
v 0.000000 0.400000 4.000000
v -4.000000 0.400000 0.000000
v 0.000000 0.400000 -4.000000
# 201 positions

vt 0.485391 0.836125
vt 0.485389 0.842601
vt 0.453169 0.842590
vt 0.453171 0.836114
vt 0.550163 0.601970
vt 0.550161 0.608447
vt 0.517940 0.608435
vt 0.517942 0.601959
vt 0.501588 0.949803
vt 0.517772 0.965998
vt 0.485552 0.965987
vt 0.469367 0.949791
vt 0.016193 0.895707
vt 0.000324 0.879517
vt 0.032544 0.879517
vt 0.048574 0.895707
vt 0.550142 0.594671
vt 0.291430 0.594583
vt 0.291441 0.562202
vt 0.582532 0.562303
vt 0.291426 0.608359
vt 0.032714 0.608271
vt 0.032717 0.601795
vt 0.291428 0.601882
vt 0.550139 0.601147
vt 0.291428 0.601060
vt 0.291430 0.673969
vt 0.550142 0.674057
vt 0.550139 0.680533
vt 0.291428 0.680446
vt 0.291426 0.528973
vt 0.032714 0.528885
vt 0.032717 0.522409
vt 0.291428 0.522496
vt 0.291415 0.561353
vt 0.000324 0.561253
vt 0.291441 0.641588
vt 0.582532 0.641689
vt 0.291415 0.640739
vt 0.000324 0.640639
vt 0.016520 0.949635
vt 0.259053 0.949719
vt 0.259047 0.965909
vt 0.000324 0.965820
vt 0.501582 0.982837
vt 0.259049 0.982837
vt 0.259049 0.966647
vt 0.517772 0.966647
vt 0.501582 0.999676
vt 0.259049 0.999676
vt 0.259049 0.983486
vt 0.517772 0.983485
vt 0.016520 0.932623
vt 0.259053 0.932707
vt 0.259047 0.948897
vt 0.000324 0.948808
vt 0.032693 0.600972
vt 0.032695 0.594495
vt 0.064916 0.594506
vt 0.064914 0.600983
vt 0.000324 0.779620
vt 0.000324 0.747239
vt 0.032544 0.747239
vt 0.032544 0.779620
vt 0.437139 0.909308
vt 0.469520 0.909308
vt 0.485389 0.925498
vt 0.453169 0.925498
vt 0.000324 0.849726
vt 0.000324 0.843250
vt 0.032544 0.843250
vt 0.032544 0.849726
vt 0.582534 0.747239
vt 0.582534 0.779620
vt 0.291429 0.779620
vt 0.291429 0.747239
vt 0.582534 0.780268
vt 0.582534 0.812648
vt 0.291429 0.812648
vt 0.291429 0.780268
vt 0.000324 0.562102
vt 0.032546 0.562113
vt 0.016514 0.982837
vt 0.000324 0.966647
vt 0.032544 0.966647
vt 0.048735 0.982837
vt 0.064916 0.673892
vt 0.032546 0.641499
vt 0.242858 0.879517
vt 0.032544 0.873041
vt 0.242858 0.873040
vt 0.582534 0.681181
vt 0.582534 0.713562
vt 0.291429 0.713562
vt 0.291429 0.681181
vt 0.048735 0.999676
vt 0.032544 0.983486
vt 0.064914 0.680369
vt 0.032544 0.812648
vt 0.032544 0.780268
vt 0.242856 0.931975
vt 0.000324 0.931974
vt 0.000324 0.925498
vt 0.242856 0.925498
vt 0.032693 0.680358
vt 0.032695 0.673881
vt 0.242857 0.843249
vt 0.485389 0.843250
vt 0.485389 0.849726
vt 0.242857 0.849726
vt 0.000324 0.812648
vt 0.000324 0.780268
vt 0.000324 0.641488
vt 0.016514 0.999676
vt 0.000324 0.983485
vt 0.000324 0.873041
vt 0.242856 0.842518
vt 0.000324 0.842434
vt 0.000326 0.835957
vt 0.242858 0.836041
vt 0.485389 0.873041
vt 0.485389 0.879517
vt 0.563935 0.299193
vt 0.563935 0.266813
vt 0.610183 0.266813
vt 0.610183 0.299193
vt 0.610183 0.299841
vt 0.610183 0.332222
vt 0.563935 0.332222
vt 0.563935 0.299841
vt 0.522334 0.508034
vt 0.522334 0.475654
vt 0.568581 0.475654
vt 0.568581 0.508034
vt 0.563935 0.266164
vt 0.563935 0.233784
vt 0.610183 0.233784
vt 0.610183 0.266164
vt 0.522334 0.061683
vt 0.571746 0.063351
vt 0.568416 0.071476
vt 0.534013 0.069447
vt 0.556662 0.421187
vt 0.563287 0.415186
vt 0.562030 0.428445
vt 0.556784 0.430851
vt 0.522587 0.113706
vt 0.533639 0.106003
vt 0.528583 0.239623
vt 0.556137 0.238795
vt 0.545516 0.246723
vt 0.527807 0.248885
vt 0.563935 0.355767
vt 0.563935 0.332870
vt 0.572429 0.332870
vt 0.572429 0.351188
vt 0.526686 0.125668
vt 0.522334 0.117673
vt 0.532830 0.123360
vt 0.534811 0.128998
vt 0.528958 0.348070
vt 0.522334 0.354070
vt 0.523590 0.340812
vt 0.528837 0.338406
vt 0.579741 0.055666
vt 0.530329 0.053998
vt 0.533659 0.045873
vt 0.568062 0.047902
vt 0.528583 0.300090
vt 0.556136 0.299263
vt 0.545516 0.307191
vt 0.527807 0.309353
vt 0.617920 0.332870
vt 0.617920 0.355767
vt 0.609426 0.351188
vt 0.609426 0.332870
vt 0.529934 0.004551
vt 0.579488 0.003643
vt 0.568435 0.011346
vt 0.532726 0.012369
vt 0.556238 0.349110
vt 0.545086 0.341345
vt 0.526686 0.183724
vt 0.522334 0.175728
vt 0.532830 0.181415
vt 0.534811 0.187053
vt 0.522334 0.294251
vt 0.523339 0.306954
vt 0.580360 0.175728
vt 0.576133 0.183329
vt 0.568315 0.186120
vt 0.570283 0.181070
vt 0.617920 0.379960
vt 0.617920 0.402857
vt 0.609426 0.398277
vt 0.609426 0.379960
vt 0.525018 0.175080
vt 0.532782 0.163401
vt 0.529383 0.420147
vt 0.540535 0.427911
vt 0.582534 0.714210
vt 0.582534 0.746591
vt 0.291429 0.746591
vt 0.291429 0.714210
vt 0.569349 0.104980
vt 0.569338 0.221830
vt 0.532782 0.221457
vt 0.568315 0.128065
vt 0.569338 0.163775
vt 0.570283 0.123015
vt 0.527675 0.010401
vt 0.528020 0.047854
vt 0.574054 0.069495
vt 0.574399 0.106948
vt 0.609426 0.408084
vt 0.609426 0.426401
vt 0.572429 0.426401
vt 0.572429 0.408084
vt 0.609426 0.360994
vt 0.609426 0.379312
vt 0.572429 0.379312
vt 0.572429 0.360994
vt 0.572429 0.398277
vt 0.572429 0.379960
vt 0.562281 0.462303
vt 0.557813 0.459904
vt 0.540535 0.367444
vt 0.556784 0.370383
vt 0.557813 0.399436
vt 0.540105 0.401598
vt 0.540105 0.462066
vt 0.545086 0.280878
vt 0.528837 0.277938
vt 0.523591 0.280345
vt 0.523339 0.246487
vt 0.562282 0.401835
vt 0.562030 0.367977
vt 0.556238 0.288642
vt 0.580360 0.117673
vt 0.576133 0.125273
vt 0.563287 0.475005
vt 0.557038 0.469166
vt 0.617920 0.403505
vt 0.617920 0.426401
vt 0.528958 0.287602
vt 0.577041 0.232882
vt 0.525018 0.233136
vt 0.529484 0.409526
vt 0.529383 0.359679
vt 0.572140 0.112798
vt 0.563935 0.426401
vt 0.563935 0.403505
vt 0.522334 0.293603
vt 0.522334 0.000324
vt 0.556662 0.360719
vt 0.522334 0.233784
vt 0.522334 0.058350
vt 0.617920 0.356415
vt 0.617920 0.379312
vt 0.563287 0.414538
vt 0.557038 0.408699
vt 0.579741 0.058999
vt 0.563935 0.379312
vt 0.563935 0.356415
vt 0.563287 0.354719
vt 0.577041 0.174827
vt 0.529484 0.469994
vt 0.579741 0.117025
vt 0.563935 0.402857
vt 0.563935 0.379960
vt 0.033232 0.488912
vt 0.032795 0.261195
vt 0.056399 0.284453
vt 0.056583 0.465335
vt 0.033197 0.033172
vt 0.260972 0.032816
vt 0.237706 0.056415
vt 0.056776 0.056536
vt 0.489218 0.261254
vt 0.465873 0.238031
vt 0.465511 0.057190
vt 0.489226 0.033523
vt 0.488930 0.489217
vt 0.261235 0.489291
vt 0.284495 0.465721
vt 0.465353 0.465844
vt 0.284669 0.056379
vt 0.284533 0.237512
vt 0.261038 0.261079
vt 0.284635 0.284579
vt 0.465704 0.284919
vt 0.237532 0.465775
vt 0.237562 0.284675
vt 0.056316 0.237499
vt 0.237443 0.237591
vt 0.582532 0.640840
vt 0.550310 0.640829
vt 0.000324 0.713562
vt 0.000324 0.681181
vt 0.032544 0.681181
vt 0.032544 0.713562
vt 0.000324 0.746591
vt 0.000324 0.714210
vt 0.032544 0.714210
vt 0.032544 0.746591
vt 0.469528 0.819929
vt 0.437147 0.819918
vt 0.550161 0.529061
vt 0.582532 0.561454
vt 0.550310 0.561443
vt 0.517940 0.529049
vt 0.485389 0.931974
vt 0.453169 0.931974
vt 0.550163 0.522584
vt 0.517942 0.522573
vt 0.501588 0.932791
vt 0.517772 0.948987
vt 0.485552 0.948976
vt 0.469367 0.932780
vt 0.016193 0.865916
vt 0.048574 0.865916
vt 0.242857 0.865916
vt 0.469520 0.865916
vt 0.242858 0.895707
vt 0.469520 0.895707
vt 0.242856 0.909308
vt 0.016193 0.909308
vt 0.242863 0.819851
vt 0.016201 0.819773
vt 0.563186 0.238781
vt 0.563287 0.288628
vt 0.522435 0.470008
vt 0.522334 0.420161
vt 0.437149 0.813442
vt 0.469530 0.813453
vt 0.016193 0.902832
vt 0.242856 0.902832
vt 0.437139 0.902832
vt 0.563186 0.299249
vt 0.563287 0.349096
vt 0.469520 0.872392
vt 0.242857 0.872392
vt 0.522435 0.409541
vt 0.522334 0.359694
vt 0.048574 0.872392
vt 0.016203 0.813297
vt 0.242866 0.813375
vt 0.242858 0.902184
vt 0.048574 0.902184
vt 0.016193 0.872392
vt 0.469520 0.902832
vt 0.469520 0.902183
vt 0.016193 0.902184
vt 0.456509 0.521502
vt 0.261252 0.521761
vt 0.488814 0.521617
vt 0.521424 0.489291
vt 0.000819 0.488826
vt 0.000893 0.456519
vt 0.033171 0.521417
vt 0.033289 0.000752
vt 0.065605 0.000834
vt 0.000685 0.033105
vt 0.521651 0.033670
vt 0.521506 0.065987
vt 0.489342 0.000990
vt 0.260959 0.000324
vt 0.000324 0.261237
vt 0.521685 0.261237
# 369 texture coordinates

vn 0.000000 0.000000 -1.000000
vn 0.000000 0.000000 1.000000
vn 0.000000 1.000000 0.000000
vn -1.000000 0.000000 0.000000
vn 1.000000 0.000000 0.000000
vn -0.707107 0.000000 0.707107
vn -0.707107 0.000000 -0.707107
vn 0.707107 0.000000 -0.707107
vn 0.707107 0.000000 0.707107
vn 0.553918 0.621570 0.553918
vn 0.999988 0.000000 -0.004935
vn -0.379642 0.843649 0.379642
vn 0.560525 0.615229 0.554350
vn -0.593086 0.544517 -0.593086
vn -0.004935 0.000000 -0.999988
vn 0.553918 0.621570 -0.553918
vn -0.554350 0.615229 0.560525
vn 0.593086 0.544517 0.593086
vn -0.553918 0.621570 0.553918
vn 0.560525 0.615230 -0.554350
vn 0.379642 0.843649 0.379642
vn -0.999988 0.000000 -0.004935
vn 0.386434 0.837459 0.386434
vn 0.593086 0.544517 -0.593086
vn -0.553918 0.621570 -0.553918
vn 0.554350 0.615230 0.560525
vn 0.386434 0.837459 -0.386434
vn 0.004935 0.000000 -0.999988
vn -0.554350 0.615230 -0.560525
vn -0.379642 0.843649 -0.379642
vn -0.386434 0.837459 -0.386434
vn -0.999988 0.000000 0.004935
vn -0.560525 0.615230 0.554350
vn -0.004935 0.000000 0.999988
vn 0.999988 0.000000 0.004935
vn 0.554350 0.615229 -0.560525
vn -0.593086 0.544517 0.593086
vn 0.004935 0.000000 0.999988
vn 0.379642 0.843649 -0.379642
vn -0.560525 0.615229 -0.554350
vn -0.386434 0.837459 0.386434
vn -0.274721 0.961524 0.000000
vn 0.000000 0.961524 0.274721
vn 0.274721 0.961524 0.000000
vn 0.000000 0.961524 -0.274721
# 45 normals

usemtl None
f 65/1/1 59/2/1 172/3/1 173/4/1
f 53/5/2 39/6/2 169/7/2 171/8/2
f 59/9/3 53/10/3 171/11/3 172/12/3
f 80/13/3 68/14/3 160/15/3 154/16/3
f 40/17/3 16/18/3 14/19/3 46/20/3
f 5/21/2 32/22/2 52/23/2 7/24/2
f 16/18/4 40/17/4 54/25/4 18/26/4
f 6/27/1 36/28/1 56/29/1 8/30/1
f 15/31/5 28/32/5 50/33/5 17/34/5
f 28/32/3 15/31/3 12/35/3 42/36/3
f 36/28/3 6/27/3 4/37/3 48/38/3
f 32/22/3 5/21/3 2/39/3 44/40/3
f 62/41/3 9/42/3 7/43/3 52/44/3
f 60/45/3 20/46/3 18/47/3 54/48/3
f 64/49/3 10/50/3 8/51/3 56/52/3
f 58/53/3 19/54/3 17/55/3 50/56/3
f 55/57/4 35/58/4 162/59/4 164/60/4
f 47/61/5 33/62/5 161/63/5 163/64/5
f 166/65/3 72/66/3 75/67/3 181/68/3
f 78/69/5 63/70/5 165/71/5 167/72/5
f 38/73/5 46/74/5 14/75/5 13/76/5
f 34/77/2 48/78/2 4/79/2 3/80/2
f 35/58/3 47/81/3 163/82/3 162/59/3
f 63/83/3 55/84/3 164/85/3 165/86/3
f 6/27/3 156/87/3 157/88/3 4/37/3
f 22/89/2 160/15/2 159/90/2 10/91/2
f 30/92/1 44/93/1 2/94/1 1/95/1
f 10/50/3 159/96/3 158/97/3 8/51/3
f 8/30/1 158/98/1 156/87/1 6/27/1
f 4/79/2 157/99/2 155/100/2 3/80/2
f 19/101/4 58/102/4 67/103/4 23/104/4
f 49/105/1 27/106/1 156/87/1 158/98/1
f 20/107/5 60/108/5 66/109/5 24/110/5
f 41/111/2 25/112/2 155/100/2 157/99/2
f 27/106/3 41/113/3 157/88/3 156/87/3
f 57/114/3 49/115/3 158/97/3 159/96/3
f 68/14/2 57/116/2 159/90/2 160/15/2
f 9/117/1 62/118/1 76/119/1 21/120/1
f 10/91/2 64/121/2 77/122/2 22/89/2
f 25/123/6 41/124/6 42/125/6 26/126/6
f 44/127/7 30/128/7 29/129/7 43/130/7
f 46/131/8 38/132/8 37/133/8 45/134/8
f 48/135/9 34/136/9 33/137/9 47/138/9
f 41/139/10 27/140/10 89/141/10 81/142/10
f 66/143/11 60/144/11 108/145/11 116/146/11
f 42/147/12 41/139/12 81/142/12 82/148/12
f 68/149/13 80/150/13 127/151/13 126/152/13
f 58/153/14 50/154/14 102/155/14 106/156/14
f 39/157/6 53/158/6 97/159/6 93/160/6
f 76/161/15 62/162/15 110/163/15 114/164/15
f 47/165/16 35/166/16 95/167/16 87/168/16
f 75/169/17 72/170/17 123/171/17 113/172/17
f 49/173/18 57/174/18 105/175/18 101/176/18
f 36/177/19 48/178/19 88/179/19 96/180/19
f 71/181/20 76/161/20 114/164/20 124/182/20
f 31/183/9 51/184/9 103/185/9 91/186/9
f 48/178/21 47/165/21 87/168/21 88/179/21
f 61/187/22 75/169/22 113/172/22 109/188/22
f 72/170/23 71/181/23 124/182/23 123/171/23
f 52/189/9 32/190/9 92/191/9 104/192/9
f 55/193/24 63/194/24 111/195/24 99/196/24
f 45/197/25 39/157/25 93/160/25 85/198/25
f 69/199/26 66/143/26 116/146/26 122/200/26
f 26/201/4 42/202/4 12/203/4 11/204/4
f 81/142/3 89/141/3 90/205/3 82/148/3
f 92/191/3 84/206/3 83/207/3 91/186/3
f 94/208/3 86/209/3 85/198/3 93/160/3
f 96/180/3 88/179/3 87/168/3 95/167/3
f 93/160/6 97/159/6 98/210/6 94/208/6
f 100/211/7 96/180/7 95/167/7 99/212/7
f 89/141/8 101/213/8 102/214/8 90/205/8
f 104/192/9 92/191/9 91/186/9 103/185/9
f 101/176/3 105/175/3 106/156/3 102/155/3
f 108/215/3 98/216/3 97/217/3 107/218/3
f 110/219/3 104/220/3 103/221/3 109/222/3
f 112/223/3 100/224/3 99/196/3 111/195/3
f 109/188/7 113/172/7 114/164/7 110/163/7
f 116/146/8 108/145/8 107/225/8 115/226/8
f 118/227/3 119/228/3 120/229/3 117/230/3
f 115/226/3 121/231/3 122/200/3 116/146/3
f 124/182/3 114/164/3 113/172/3 123/171/3
f 126/152/3 127/151/3 128/232/3 125/233/3
f 125/233/6 106/234/6 105/235/6 126/152/6
f 111/236/9 120/229/9 119/228/9 112/237/9
f 80/150/27 79/238/27 128/232/27 127/151/27
f 54/239/6 40/240/6 94/208/6 98/210/6
f 59/241/28 65/242/28 115/226/28 107/225/28
f 60/243/18 54/244/18 98/216/18 108/215/18
f 79/238/29 67/245/29 125/233/29 128/232/29
f 44/246/30 43/247/30 83/207/30 84/206/30
f 74/248/31 73/249/31 118/227/31 117/230/31
f 28/250/25 42/147/25 82/148/25 90/205/25
f 53/251/14 59/252/14 107/218/14 97/217/14
f 67/245/32 58/253/32 106/234/32 125/233/32
f 56/254/7 36/177/7 96/180/7 100/211/7
f 73/249/33 77/255/33 119/228/33 118/227/33
f 57/256/34 68/149/34 126/152/34 105/235/34
f 35/166/7 55/257/7 99/212/7 95/167/7
f 32/190/16 44/246/16 84/206/16 92/191/16
f 62/258/24 52/259/24 104/220/24 110/219/24
f 63/260/35 78/261/35 120/229/35 111/236/35
f 27/140/8 49/262/8 101/213/8 89/141/8
f 78/261/36 74/248/36 117/230/36 120/229/36
f 43/247/19 31/183/19 91/186/19 83/207/19
f 51/263/37 61/264/37 109/222/37 103/221/37
f 77/255/38 64/265/38 112/237/38 119/228/38
f 46/266/39 45/197/39 85/198/39 86/209/39
f 65/242/40 70/267/40 121/231/40 115/226/40
f 50/268/8 28/250/8 90/205/8 102/214/8
f 70/267/41 69/199/41 122/200/41 121/231/41
f 40/240/10 46/266/10 86/209/10 94/208/10
f 64/269/37 56/270/37 100/224/37 112/223/37
f 129/271/42 130/272/42 149/273/42 146/274/42
f 135/275/43 133/276/43 153/277/43 151/278/43
f 132/279/44 140/280/44 139/281/44 134/282/44
f 136/283/45 131/284/45 145/285/45 143/286/45
f 138/287/3 139/281/3 140/280/3 141/288/3
f 133/276/43 134/282/43 139/281/43 138/287/43
f 137/289/42 133/276/42 138/287/42 141/288/42
f 132/279/45 137/289/45 141/288/45 140/280/45
f 144/290/3 142/291/3 143/286/3 145/285/3
f 132/279/44 136/283/44 143/286/44 142/291/44
f 131/284/42 137/289/42 144/290/42 145/285/42
f 137/289/43 132/279/43 142/291/43 144/290/43
f 147/292/3 146/274/3 149/273/3 148/293/3
f 131/284/45 129/271/45 146/274/45 147/292/45
f 130/272/43 137/289/43 148/293/43 149/273/43
f 137/289/44 131/284/44 147/292/44 148/293/44
f 150/294/3 151/278/3 153/277/3 152/295/3
f 130/272/42 135/275/42 151/278/42 150/294/42
f 133/276/44 137/289/44 152/295/44 153/277/44
f 137/289/45 130/272/45 150/294/45 152/295/45
f 39/6/3 45/296/3 170/297/3 169/7/3
f 45/298/1 37/299/1 168/300/1 170/301/1
f 43/302/4 29/303/4 175/304/4 177/305/4
f 70/306/3 65/1/3 173/4/3 180/307/3
f 31/308/3 43/309/3 177/310/3 176/311/3
f 75/67/4 61/312/4 179/313/4 181/68/4
f 51/314/5 31/308/5 176/311/5 178/315/5
f 61/316/3 51/317/3 178/318/3 179/319/3
f 23/104/4 181/68/4 179/313/4 19/101/4
f 19/54/3 179/319/3 178/318/3 17/55/3
f 17/34/5 178/315/5 176/311/5 15/31/5
f 15/31/3 176/311/3 177/310/3 12/35/3
f 12/203/4 177/305/4 175/304/4 11/204/4
f 21/120/1 173/4/1 172/3/1 9/117/1
f 9/42/3 172/12/3 171/11/3 7/43/3
f 7/24/2 171/8/2 169/7/2 5/21/2
f 5/21/3 169/7/3 170/297/3 2/39/3
f 2/94/1 170/301/1 168/300/1 1/95/1
f 24/110/5 167/72/5 165/71/5 20/107/5
f 20/46/3 165/86/3 164/85/3 18/47/3
f 18/26/4 164/60/4 162/59/4 16/18/4
f 16/18/3 162/59/3 163/82/3 14/19/3
f 14/75/5 163/64/5 161/63/5 13/76/5
f 74/320/3 78/69/3 167/72/3 174/321/3
f 182/322/3 24/110/3 66/109/3 69/323/3
f 24/110/3 182/322/3 174/321/3 167/72/3
f 183/324/3 154/16/3 160/15/3 22/89/3
f 73/325/3 183/324/3 22/89/3 77/122/3
f 184/326/3 23/104/3 67/103/3 79/327/3
f 166/65/3 181/68/3 23/104/3 184/326/3
f 185/328/3 21/120/3 76/119/3 71/329/3
f 180/307/3 173/4/3 21/120/3 185/328/3
f 79/238/8 80/150/8 193/330/8 192/331/8
f 69/199/6 70/267/6 187/332/6 186/333/6
f 70/306/2 180/307/2 197/334/2 187/335/2
f 184/326/5 79/327/5 192/336/5 200/337/5
f 166/65/5 184/326/5 200/337/5 195/338/5
f 71/181/9 72/170/9 189/339/9 188/340/9
f 182/322/4 69/323/4 186/341/4 198/342/4
f 73/249/7 74/248/7 191/343/7 190/344/7
f 174/321/4 182/322/4 198/342/4 196/345/4
f 185/328/2 71/329/2 188/346/2 201/347/2
f 180/307/2 185/328/2 201/347/2 197/334/2
f 154/16/1 183/324/1 199/348/1 194/349/1
f 74/320/4 174/321/4 196/345/4 191/350/4
f 72/66/5 166/65/5 195/338/5 189/351/5
f 183/324/1 73/325/1 190/352/1 199/348/1
f 80/13/1 154/16/1 194/349/1 193/353/1
f 131/284/3 136/283/3 197/354/3 201/355/3
f 187/356/3 197/354/3 136/283/3 186/357/3
f 189/358/3 195/359/3 129/271/3 188/360/3
f 193/361/3 194/362/3 135/275/3 192/363/3
f 191/364/3 196/365/3 134/282/3 190/366/3
f 133/276/3 199/367/3 190/366/3 134/282/3
f 133/276/3 135/275/3 194/362/3 199/367/3
f 130/272/3 200/368/3 192/363/3 135/275/3
f 130/272/3 129/271/3 195/359/3 200/368/3
f 131/284/3 201/355/3 188/360/3 129/271/3
f 132/279/3 198/369/3 186/357/3 136/283/3
f 132/279/3 134/282/3 196/365/3 198/369/3

# 192 faces
