# Wavefront Obj file
# 
# verts: 193 uv-s: 373
mtllib Floor.02.mtl

g Cube.002_Cube.012
#pivot 0.000000 0.000000 0.000000

v 0.000000 0.000000 -5.000000
v 0.000000 0.500000 -5.000000
v 0.000000 0.000000 5.000000
v 0.000000 0.500000 5.000000
v 0.000000 0.500000 -4.500000
v 0.000000 0.500000 4.500000
v 0.000000 0.400000 -4.500000
v 0.000000 0.400000 4.500000
v 0.000000 0.400000 -4.250000
v 0.000000 0.400000 4.250000
v -5.000000 0.000000 0.000000
v -5.000000 0.500000 0.000000
v 5.000000 0.000000 0.000000
v 5.000000 0.500000 0.000000
v -4.500000 0.500000 0.000000
v 4.500000 0.500000 0.000000
v -4.500000 0.400000 0.000000
v 4.500000 0.400000 0.000000
v -4.250000 0.400000 0.000000
v 4.250000 0.400000 0.000000
v 0.000000 0.500000 -4.250000
v 0.000000 0.500000 4.250000
v -4.250000 0.500000 0.000000
v 4.250000 0.500000 0.000000
v -4.495043 0.000000 5.000000
v -5.000000 0.000000 4.495043
v -3.995043 0.500000 4.500000
v -4.500000 0.500000 3.995043
v -5.000000 0.000000 -4.495043
v -4.495043 0.000000 -5.000000
v -4.500000 0.500000 -3.995043
v -3.995043 0.500000 -4.500000
v 5.000000 0.000000 4.495043
v 4.495043 0.000000 5.000000
v 4.500000 0.500000 3.995043
v 3.995043 0.500000 4.500000
v 4.495043 0.000000 -5.000000
v 5.000000 0.000000 -4.495043
v 3.995043 0.500000 -4.500000
v 4.500000 0.500000 -3.995043
v -4.495043 0.500000 5.000000
v -5.000000 0.500000 4.495043
v -5.000000 0.500000 -4.495043
v -4.495043 0.500000 -5.000000
v 4.495043 0.500000 -5.000000
v 5.000000 0.500000 -4.495043
v 5.000000 0.500000 4.495043
v 4.495043 0.500000 5.000000
v -3.995043 0.400000 4.500000
v -4.500000 0.400000 3.995043
v -4.500000 0.400000 -3.995043
v -3.995043 0.400000 -4.500000
v 3.995043 0.400000 -4.500000
v 4.500000 0.400000 -3.995043
v 4.500000 0.400000 3.995043
v 3.995043 0.400000 4.500000
v -3.745043 0.400000 4.250000
v -4.250000 0.400000 3.745043
v 3.745043 0.400000 -4.250000
v 4.250000 0.400000 -3.745043
v -4.250000 0.400000 -3.745043
v -3.745043 0.400000 -4.250000
v 4.250000 0.400000 3.745043
v 3.745043 0.400000 4.250000
v 3.745043 0.500000 -4.250000
v 4.250000 0.500000 -3.745043
v -4.250000 0.500000 3.745043
v -3.745043 0.500000 4.250000
v 4.000000 0.500000 -3.500000
v 3.500000 0.500000 -4.000000
v -3.500000 0.500000 -4.000000
v -4.000000 0.500000 -3.500000
v 3.500000 0.500000 4.000000
v 4.000000 0.500000 3.500000
v -4.250000 0.500000 -3.745043
v -3.745043 0.500000 -4.250000
v 3.745043 0.500000 4.250000
v 4.250000 0.500000 3.745043
v -4.000000 0.500000 3.500000
v -3.500000 0.500000 4.000000
v -4.445539 0.590000 4.849504
v -4.849504 0.590000 4.445539
v -4.849504 0.590000 -4.445539
v -4.445539 0.590000 -4.849504
v 4.445539 0.590000 -4.849504
v 4.849504 0.590000 -4.445539
v 4.849504 0.590000 4.445539
v 4.445539 0.590000 4.849504
v -4.045539 0.590000 4.449504
v -4.449504 0.590000 4.045539
v -4.449504 0.590000 -4.045539
v -4.045539 0.590000 -4.449504
v 4.045539 0.590000 -4.449504
v 4.449504 0.590000 -4.045539
v 4.449504 0.590000 4.045539
v 4.045539 0.590000 4.449504
v 4.045539 0.510000 -4.449504
v 4.449504 0.510000 -4.045539
v 4.449504 0.510000 4.045539
v 4.045539 0.510000 4.449504
v -4.045539 0.510000 4.449504
v -4.449504 0.510000 4.045539
v -4.449504 0.510000 -4.045539
v -4.045539 0.510000 -4.449504
v -3.845539 0.510000 4.249504
v -4.249504 0.510000 3.845539
v 3.845539 0.510000 -4.249504
v 4.249504 0.510000 -3.845539
v -4.249504 0.510000 -3.845539
v -3.845539 0.510000 -4.249504
v 4.249504 0.510000 3.845539
v 3.845539 0.510000 4.249504
v -4.249504 0.590000 -3.845539
v -3.845539 0.590000 -4.249504
v 3.845539 0.590000 -4.249504
v 4.249504 0.590000 -3.845539
v 4.049504 0.590000 3.645539
v 3.645539 0.590000 4.049504
v 3.845539 0.590000 4.249504
v 4.249504 0.590000 3.845539
v 3.645539 0.590000 -4.049504
v 4.049504 0.590000 -3.645539
v -4.049504 0.590000 -3.645539
v -3.645539 0.590000 -4.049504
v -4.249504 0.590000 3.845539
v -3.845539 0.590000 4.249504
v -3.645539 0.590000 4.049504
v -4.049504 0.590000 3.645539
v -3.500000 0.400000 -3.500000
v -3.500000 0.400000 0.000000
v 0.000000 0.400000 -3.500000
v 3.500000 0.400000 0.000000
v 0.000000 0.400000 3.500000
v 3.500000 0.400000 3.500000
v -3.500000 0.400000 3.500000
v 3.500000 0.400000 -3.500000
v -3.000000 0.500000 4.000000
v -3.997521 0.000000 5.000000
v -3.497522 0.500000 4.500000
v -3.997521 0.500000 5.000000
v -3.497522 0.400000 4.500000
v -3.247522 0.400000 4.250000
v -3.247522 0.500000 4.250000
v 5.000000 0.000000 3.997521
v 4.500000 0.500000 3.497522
v 5.000000 0.500000 3.997521
v 4.500000 0.400000 3.497522
v 4.250000 0.400000 3.247522
v -4.000000 0.500000 -3.000000
v 4.250000 0.500000 3.247522
v 3.997521 0.000000 -5.000000
v 3.497522 0.500000 -4.500000
v 3.997521 0.500000 -5.000000
v 3.497522 0.400000 -4.500000
v 3.247522 0.400000 -4.250000
v 3.247522 0.500000 -4.250000
v 4.000000 0.500000 3.000000
v -5.000000 0.000000 -3.997521
v -4.500000 0.500000 -3.497522
v -5.000000 0.500000 -3.997521
v -4.500000 0.400000 -3.497522
v -4.250000 0.400000 -3.247522
v 3.000000 0.500000 -4.000000
v -4.250000 0.500000 -3.247522
v 4.000000 0.500000 0.000000
v 0.000000 0.500000 4.000000
v -4.000000 0.500000 0.000000
v 0.000000 0.500000 -4.000000
v 4.000000 0.400000 -3.500000
v 3.500000 0.400000 -4.000000
v -3.500000 0.400000 -4.000000
v -4.000000 0.400000 -3.500000
v 3.500000 0.400000 4.000000
v 4.000000 0.400000 3.500000
v -4.000000 0.400000 3.500000
v -3.500000 0.400000 4.000000
v -3.000000 0.400000 4.000000
v -4.000000 0.400000 -3.000000
v 4.000000 0.400000 3.000000
v 3.000000 0.400000 -4.000000
v 4.000000 0.400000 0.000000
v 0.000000 0.400000 4.000000
v -4.000000 0.400000 0.000000
v 0.000000 0.400000 -4.000000
v -3.500000 0.500000 -3.500000
v 0.000000 0.500000 -3.500000
v 0.000000 0.500000 3.500000
v 3.500000 0.500000 3.500000
v -3.500000 0.500000 0.000000
v -3.500000 0.500000 3.500000
v 3.500000 0.500000 0.000000
v 3.500000 0.500000 -3.500000
v 0.000000 0.500000 0.000000
# 193 positions

vt 0.414952 0.825860
vt 0.414950 0.831395
vt 0.387409 0.831386
vt 0.387411 0.825850
vt 0.470317 0.591009
vt 0.470315 0.596545
vt 0.442773 0.596536
vt 0.442775 0.591000
vt 0.844080 0.857641
vt 0.857915 0.871485
vt 0.830374 0.871475
vt 0.816540 0.857632
vt 0.013897 0.851435
vt 0.000332 0.837596
vt 0.027873 0.837596
vt 0.041575 0.851435
vt 0.470298 0.652737
vt 0.249160 0.652662
vt 0.249170 0.624984
vt 0.497985 0.625070
vt 0.249157 0.596470
vt 0.028018 0.596395
vt 0.028020 0.590860
vt 0.249159 0.590934
vt 0.470297 0.658273
vt 0.249158 0.658198
vt 0.249160 0.686701
vt 0.470298 0.686776
vt 0.470297 0.692312
vt 0.249158 0.692237
vt 0.249157 0.562431
vt 0.028018 0.562356
vt 0.028020 0.556821
vt 0.249159 0.556895
vt 0.249147 0.590109
vt 0.000332 0.590023
vt 0.249169 0.659023
vt 0.497985 0.659109
vt 0.249147 0.624148
vt 0.000332 0.624062
vt 0.429460 0.857498
vt 0.636770 0.857569
vt 0.636765 0.871408
vt 0.415617 0.871332
vt 0.844075 0.900640
vt 0.636766 0.900640
vt 0.636766 0.886801
vt 0.857915 0.886801
vt 0.844075 0.915144
vt 0.636766 0.915144
vt 0.636766 0.901305
vt 0.857915 0.901305
vt 0.429460 0.872150
vt 0.636770 0.872221
vt 0.636765 0.886060
vt 0.415617 0.885984
vt 0.028000 0.658123
vt 0.028002 0.652587
vt 0.055544 0.652597
vt 0.055542 0.658132
vt 0.000332 0.748997
vt 0.000332 0.721319
vt 0.027873 0.721319
vt 0.027873 0.748997
vt 0.788992 0.811883
vt 0.816670 0.811883
vt 0.830234 0.825722
vt 0.802693 0.825722
vt 0.415617 0.837459
vt 0.415617 0.831923
vt 0.443157 0.831923
vt 0.443157 0.837459
vt 0.497987 0.721319
vt 0.497987 0.748997
vt 0.249160 0.748997
vt 0.249160 0.721319
vt 0.497987 0.778004
vt 0.497987 0.805682
vt 0.249160 0.805682
vt 0.249160 0.778004
vt 0.000332 0.624899
vt 0.027874 0.624908
vt 0.429456 0.900640
vt 0.415617 0.886801
vt 0.443157 0.886801
vt 0.456996 0.900640
vt 0.055544 0.686635
vt 0.027874 0.658947
vt 0.207642 0.837596
vt 0.027873 0.832060
vt 0.207642 0.832060
vt 0.497987 0.692976
vt 0.497987 0.720654
vt 0.249160 0.720654
vt 0.249160 0.692976
vt 0.456996 0.915144
vt 0.443157 0.901305
vt 0.055542 0.692171
vt 0.027873 0.805682
vt 0.027873 0.778004
vt 0.622925 0.831258
vt 0.415617 0.831257
vt 0.415617 0.825721
vt 0.622925 0.825722
vt 0.028000 0.692162
vt 0.028002 0.686626
vt 0.622926 0.831923
vt 0.830234 0.831923
vt 0.830234 0.837459
vt 0.622926 0.837459
vt 0.000332 0.805682
vt 0.000332 0.778004
vt 0.000332 0.658937
vt 0.429456 0.915144
vt 0.415617 0.901305
vt 0.000332 0.832060
vt 0.207640 0.831324
vt 0.000332 0.831252
vt 0.000334 0.825717
vt 0.207642 0.825788
vt 0.414950 0.832060
vt 0.414950 0.837596
vt 0.558981 0.664638
vt 0.558981 0.636960
vt 0.598512 0.636960
vt 0.598512 0.664638
vt 0.638707 0.636960
vt 0.638707 0.664638
vt 0.599177 0.664638
vt 0.599177 0.636960
vt 0.599177 0.636295
vt 0.599177 0.608617
vt 0.638707 0.608617
vt 0.638707 0.636295
vt 0.558981 0.636295
vt 0.558981 0.608617
vt 0.598512 0.608617
vt 0.598512 0.636295
vt 0.556821 0.496403
vt 0.599056 0.497828
vt 0.596210 0.504773
vt 0.566803 0.503039
vt 0.635898 0.448973
vt 0.641561 0.443844
vt 0.640487 0.455177
vt 0.636002 0.457234
vt 0.557037 0.540870
vt 0.566484 0.534285
vt 0.604518 0.561812
vt 0.628070 0.561105
vt 0.618992 0.567881
vt 0.603856 0.569729
vt 0.498649 0.677923
vt 0.498649 0.658351
vt 0.505909 0.658351
vt 0.505909 0.674008
vt 0.502369 0.563655
vt 0.498649 0.556821
vt 0.507622 0.561682
vt 0.509315 0.566501
vt 0.504312 0.652557
vt 0.498649 0.657687
vt 0.499724 0.646354
vt 0.504208 0.644297
vt 0.605890 0.491148
vt 0.563655 0.489723
vt 0.566501 0.482778
vt 0.595908 0.484512
vt 0.503991 0.611546
vt 0.527543 0.610839
vt 0.518465 0.617615
vt 0.503328 0.619464
vt 0.544793 0.658351
vt 0.544793 0.677923
vt 0.537534 0.674008
vt 0.537534 0.658351
vt 0.563317 0.447457
vt 0.605674 0.446681
vt 0.596227 0.453265
vt 0.565703 0.454140
vt 0.527629 0.653446
vt 0.518097 0.646810
vt 0.552633 0.563655
vt 0.548913 0.556821
vt 0.557885 0.561682
vt 0.559578 0.566501
vt 0.498649 0.606555
vt 0.499509 0.617413
vt 0.598512 0.556821
vt 0.594899 0.563317
vt 0.588216 0.565703
vt 0.589898 0.561387
vt 0.680991 0.556821
vt 0.680991 0.576392
vt 0.673731 0.572478
vt 0.673731 0.556821
vt 0.500944 0.605890
vt 0.507581 0.595908
vt 0.612581 0.448084
vt 0.622113 0.454721
vt 0.497987 0.749662
vt 0.497987 0.777340
vt 0.249160 0.777340
vt 0.249160 0.749662
vt 0.597008 0.533411
vt 0.589091 0.596227
vt 0.557844 0.595908
vt 0.537953 0.565703
vt 0.538827 0.596227
vt 0.539635 0.561387
vt 0.561387 0.452458
vt 0.561682 0.484471
vt 0.601029 0.503080
vt 0.601324 0.535093
vt 0.597866 0.669216
vt 0.597866 0.684873
vt 0.566241 0.684873
vt 0.566241 0.669216
vt 0.673731 0.580971
vt 0.673731 0.596628
vt 0.642107 0.596628
vt 0.642107 0.580971
vt 0.642107 0.572478
vt 0.642107 0.556821
vt 0.640701 0.484118
vt 0.636882 0.482067
vt 0.622113 0.506517
vt 0.636002 0.509030
vt 0.636882 0.533863
vt 0.621745 0.535712
vt 0.621745 0.483915
vt 0.618625 0.597075
vt 0.604736 0.594563
vt 0.600251 0.596619
vt 0.600036 0.567679
vt 0.640701 0.535914
vt 0.640487 0.506973
vt 0.628157 0.603712
vt 0.548248 0.556821
vt 0.544635 0.563317
vt 0.641561 0.494976
vt 0.636220 0.489985
vt 0.605125 0.665302
vt 0.605125 0.684873
vt 0.604839 0.602823
vt 0.595675 0.605674
vt 0.551208 0.605890
vt 0.612667 0.542488
vt 0.612581 0.499880
vt 0.599394 0.540094
vt 0.558981 0.684873
vt 0.558981 0.665302
vt 0.599177 0.607952
vt 0.556821 0.443844
vt 0.635898 0.500769
vt 0.599177 0.556821
vt 0.556821 0.493443
vt 0.680991 0.577057
vt 0.680991 0.596628
vt 0.641561 0.546772
vt 0.636219 0.541781
vt 0.605890 0.494108
vt 0.634847 0.596628
vt 0.634847 0.577057
vt 0.641561 0.495640
vt 0.545411 0.605674
vt 0.612667 0.490692
vt 0.605890 0.543707
vt 0.634847 0.576392
vt 0.634847 0.556821
vt 0.278248 0.078963
vt 0.471993 0.078966
vt 0.471993 0.084502
vt 0.278248 0.084499
vt 0.477525 0.278248
vt 0.477522 0.471993
vt 0.471987 0.471993
vt 0.471990 0.278248
vt 0.084502 0.078960
vt 0.084502 0.084496
vt 0.471987 0.477528
vt 0.278240 0.477525
vt 0.278240 0.471990
vt 0.497985 0.624234
vt 0.470443 0.624224
vt 0.000332 0.720654
vt 0.000332 0.692976
vt 0.027873 0.692976
vt 0.027873 0.720654
vt 0.000332 0.777340
vt 0.000332 0.749662
vt 0.027873 0.749662
vt 0.027873 0.777340
vt 0.401392 0.812016
vt 0.373714 0.812007
vt 0.470315 0.562506
vt 0.497985 0.590195
vt 0.470443 0.590185
vt 0.442773 0.562497
vt 0.830234 0.831258
vt 0.802693 0.831258
vt 0.470317 0.556970
vt 0.442775 0.556961
vt 0.844080 0.872293
vt 0.857915 0.886137
vt 0.830374 0.886127
vt 0.816540 0.872283
vt 0.429181 0.851297
vt 0.456859 0.851297
vt 0.622926 0.851297
vt 0.816670 0.851297
vt 0.207642 0.851435
vt 0.401386 0.851435
vt 0.622925 0.811883
vt 0.429181 0.811883
vt 0.207647 0.811949
vt 0.013903 0.811883
vt 0.634096 0.561092
vt 0.634183 0.603700
vt 0.606642 0.490704
vt 0.606555 0.448096
vt 0.373716 0.806471
vt 0.401394 0.806481
vt 0.429181 0.806347
vt 0.622925 0.806347
vt 0.788992 0.806348
vt 0.533569 0.610827
vt 0.533655 0.653434
vt 0.816670 0.856833
vt 0.622926 0.856833
vt 0.606642 0.542500
vt 0.606555 0.499893
vt 0.456859 0.856833
vt 0.013905 0.806347
vt 0.207649 0.806414
vt 0.207642 0.856971
vt 0.041575 0.856971
vt 0.429181 0.856833
vt 0.816670 0.806348
vt 0.401386 0.856970
vt 0.013897 0.856971
vt 0.778244 0.415501
vt 0.971990 0.415501
vt 0.944312 0.443179
vt 0.778244 0.443179
vt 0.971990 0.443179
vt 0.999668 0.415501
vt 0.556821 0.415501
vt 0.556821 0.387824
vt 0.584499 0.415501
vt 0.584499 0.443179
vt 0.584499 0.000332
vt 0.612176 0.000332
vt 0.584499 0.028010
vt 0.556821 0.028010
vt 0.999668 0.028010
vt 0.999668 0.055688
vt 0.971990 0.028010
vt 0.971990 0.000332
vt 0.778244 0.028010
vt 0.778244 0.000332
vt 0.584499 0.221756
vt 0.556821 0.221756
vt 0.971990 0.221756
vt 0.999668 0.221756
vt 0.084496 0.471987
vt 0.084499 0.278241
vt 0.278244 0.278244
vt 0.477528 0.084502
vt 0.078960 0.471987
vt 0.078963 0.278240
vt 0.078966 0.084496
vt 0.084496 0.477522
# 373 texture coordinates

vn 0.000000 0.000000 -1.000000
vn 0.000000 0.000000 1.000000
vn 0.000000 1.000000 0.000000
vn -1.000000 0.000000 0.000000
vn 1.000000 0.000000 0.000000
vn -0.707107 0.000000 0.707107
vn -0.707107 0.000000 -0.707107
vn 0.707107 0.000000 -0.707107
vn 0.707107 0.000000 0.707107
vn 0.553918 0.621570 0.553918
vn 0.999988 0.000000 -0.004935
vn -0.379642 0.843649 0.379642
vn 0.560525 0.615229 0.554350
vn -0.593086 0.544517 -0.593086
vn -0.004935 0.000000 -0.999988
vn 0.553918 0.621570 -0.553918
vn -0.554350 0.615229 0.560525
vn 0.593086 0.544517 0.593086
vn -0.553918 0.621570 0.553918
vn 0.560525 0.615230 -0.554350
vn 0.379642 0.843649 0.379642
vn -0.999988 0.000000 -0.004935
vn 0.386434 0.837459 0.386434
vn 0.593086 0.544517 -0.593086
vn -0.553918 0.621570 -0.553918
vn 0.554350 0.615230 0.560525
vn 0.386434 0.837459 -0.386434
vn 0.004935 0.000000 -0.999988
vn -0.554350 0.615230 -0.560525
vn -0.379642 0.843649 -0.379642
vn -0.386434 0.837459 -0.386434
vn -0.999988 0.000000 0.004935
vn -0.560525 0.615230 0.554350
vn -0.004935 0.000000 0.999988
vn 0.999988 0.000000 0.004935
vn 0.554350 0.615229 -0.560525
vn -0.593086 0.544517 0.593086
vn 0.004935 0.000000 0.999988
vn 0.379642 0.843649 -0.379642
vn -0.560525 0.615229 -0.554350
vn -0.386434 0.837459 0.386434
# 41 normals

usemtl None
f 65/1/1 59/2/1 155/3/1 156/4/1
f 53/5/2 39/6/2 152/7/2 154/8/2
f 59/9/3 53/10/3 154/11/3 155/12/3
f 80/13/3 68/14/3 143/15/3 137/16/3
f 40/17/3 16/18/3 14/19/3 46/20/3
f 5/21/2 32/22/2 52/23/2 7/24/2
f 16/18/4 40/17/4 54/25/4 18/26/4
f 6/27/1 36/28/1 56/29/1 8/30/1
f 15/31/5 28/32/5 50/33/5 17/34/5
f 28/32/3 15/31/3 12/35/3 42/36/3
f 36/28/3 6/27/3 4/37/3 48/38/3
f 32/22/3 5/21/3 2/39/3 44/40/3
f 62/41/3 9/42/3 7/43/3 52/44/3
f 60/45/3 20/46/3 18/47/3 54/48/3
f 64/49/3 10/50/3 8/51/3 56/52/3
f 58/53/3 19/54/3 17/55/3 50/56/3
f 55/57/4 35/58/4 145/59/4 147/60/4
f 47/61/5 33/62/5 144/63/5 146/64/5
f 149/65/3 72/66/3 75/67/3 164/68/3
f 78/69/5 63/70/5 148/71/5 150/72/5
f 38/73/5 46/74/5 14/75/5 13/76/5
f 34/77/2 48/78/2 4/79/2 3/80/2
f 35/58/3 47/81/3 146/82/3 145/59/3
f 63/83/3 55/84/3 147/85/3 148/86/3
f 6/27/3 139/87/3 140/88/3 4/37/3
f 22/89/2 143/15/2 142/90/2 10/91/2
f 30/92/1 44/93/1 2/94/1 1/95/1
f 10/50/3 142/96/3 141/97/3 8/51/3
f 8/30/1 141/98/1 139/87/1 6/27/1
f 4/79/2 140/99/2 138/100/2 3/80/2
f 19/101/4 58/102/4 67/103/4 23/104/4
f 49/105/1 27/106/1 139/87/1 141/98/1
f 20/107/5 60/108/5 66/109/5 24/110/5
f 41/111/2 25/112/2 138/100/2 140/99/2
f 27/106/3 41/113/3 140/88/3 139/87/3
f 57/114/3 49/115/3 141/97/3 142/96/3
f 68/14/2 57/116/2 142/90/2 143/15/2
f 9/117/1 62/118/1 76/119/1 21/120/1
f 10/91/2 64/121/2 77/122/2 22/89/2
f 25/123/6 41/124/6 42/125/6 26/126/6
f 44/127/7 30/128/7 29/129/7 43/130/7
f 46/131/8 38/132/8 37/133/8 45/134/8
f 48/135/9 34/136/9 33/137/9 47/138/9
f 41/139/10 27/140/10 89/141/10 81/142/10
f 66/143/11 60/144/11 108/145/11 116/146/11
f 42/147/12 41/139/12 81/142/12 82/148/12
f 68/149/13 80/150/13 127/151/13 126/152/13
f 58/153/14 50/154/14 102/155/14 106/156/14
f 39/157/6 53/158/6 97/159/6 93/160/6
f 76/161/15 62/162/15 110/163/15 114/164/15
f 47/165/16 35/166/16 95/167/16 87/168/16
f 75/169/17 72/170/17 123/171/17 113/172/17
f 49/173/18 57/174/18 105/175/18 101/176/18
f 36/177/19 48/178/19 88/179/19 96/180/19
f 71/181/20 76/161/20 114/164/20 124/182/20
f 31/183/9 51/184/9 103/185/9 91/186/9
f 48/178/21 47/165/21 87/168/21 88/179/21
f 61/187/22 75/169/22 113/172/22 109/188/22
f 72/170/23 71/181/23 124/182/23 123/171/23
f 52/189/9 32/190/9 92/191/9 104/192/9
f 55/193/24 63/194/24 111/195/24 99/196/24
f 45/197/25 39/157/25 93/160/25 85/198/25
f 69/199/26 66/143/26 116/146/26 122/200/26
f 26/201/4 42/202/4 12/203/4 11/204/4
f 81/142/3 89/141/3 90/205/3 82/148/3
f 92/191/3 84/206/3 83/207/3 91/186/3
f 94/208/3 86/209/3 85/198/3 93/160/3
f 96/180/3 88/179/3 87/168/3 95/167/3
f 93/160/6 97/159/6 98/210/6 94/208/6
f 100/211/7 96/180/7 95/167/7 99/212/7
f 89/141/8 101/213/8 102/214/8 90/205/8
f 104/192/9 92/191/9 91/186/9 103/185/9
f 101/176/3 105/175/3 106/156/3 102/155/3
f 108/215/3 98/216/3 97/217/3 107/218/3
f 110/219/3 104/220/3 103/221/3 109/222/3
f 112/223/3 100/224/3 99/196/3 111/195/3
f 109/188/7 113/172/7 114/164/7 110/163/7
f 116/146/8 108/145/8 107/225/8 115/226/8
f 118/227/3 119/228/3 120/229/3 117/230/3
f 115/226/3 121/231/3 122/200/3 116/146/3
f 124/182/3 114/164/3 113/172/3 123/171/3
f 126/152/3 127/151/3 128/232/3 125/233/3
f 125/233/6 106/234/6 105/235/6 126/152/6
f 111/236/9 120/229/9 119/228/9 112/237/9
f 80/150/27 79/238/27 128/232/27 127/151/27
f 54/239/6 40/240/6 94/208/6 98/210/6
f 59/241/28 65/242/28 115/226/28 107/225/28
f 60/243/18 54/244/18 98/216/18 108/215/18
f 79/238/29 67/245/29 125/233/29 128/232/29
f 44/246/30 43/247/30 83/207/30 84/206/30
f 74/248/31 73/249/31 118/227/31 117/230/31
f 28/250/25 42/147/25 82/148/25 90/205/25
f 53/251/14 59/252/14 107/218/14 97/217/14
f 67/245/32 58/253/32 106/234/32 125/233/32
f 56/254/7 36/177/7 96/180/7 100/211/7
f 73/249/33 77/255/33 119/228/33 118/227/33
f 57/256/34 68/149/34 126/152/34 105/235/34
f 35/166/7 55/257/7 99/212/7 95/167/7
f 32/190/16 44/246/16 84/206/16 92/191/16
f 62/258/24 52/259/24 104/220/24 110/219/24
f 63/260/35 78/261/35 120/229/35 111/236/35
f 27/140/8 49/262/8 101/213/8 89/141/8
f 78/261/36 74/248/36 117/230/36 120/229/36
f 43/247/19 31/183/19 91/186/19 83/207/19
f 51/263/37 61/264/37 109/222/37 103/221/37
f 77/255/38 64/265/38 112/237/38 119/228/38
f 46/266/39 45/197/39 85/198/39 86/209/39
f 65/242/40 70/267/40 121/231/40 115/226/40
f 50/268/8 28/250/8 90/205/8 102/214/8
f 70/267/41 69/199/41 122/200/41 121/231/41
f 40/240/10 46/266/10 86/209/10 94/208/10
f 64/269/37 56/270/37 100/224/37 112/223/37
f 133/271/2 134/272/2 188/273/2 187/274/2
f 132/275/5 136/276/5 192/277/5 191/278/5
f 135/279/2 133/271/2 187/274/2 190/280/2
f 136/281/1 131/282/1 186/283/1 192/277/1
f 39/6/3 45/284/3 153/285/3 152/7/3
f 45/286/1 37/287/1 151/288/1 153/289/1
f 43/290/4 29/291/4 158/292/4 160/293/4
f 70/294/3 65/1/3 156/4/3 163/295/3
f 31/296/3 43/297/3 160/298/3 159/299/3
f 75/67/4 61/300/4 162/301/4 164/68/4
f 51/302/5 31/296/5 159/299/5 161/303/5
f 61/304/3 51/305/3 161/306/3 162/307/3
f 23/104/4 164/68/4 162/301/4 19/101/4
f 19/54/3 162/307/3 161/306/3 17/55/3
f 17/34/5 161/303/5 159/299/5 15/31/5
f 15/31/3 159/299/3 160/298/3 12/35/3
f 12/203/4 160/293/4 158/292/4 11/204/4
f 21/120/1 156/4/1 155/3/1 9/117/1
f 9/42/3 155/12/3 154/11/3 7/43/3
f 7/24/2 154/8/2 152/7/2 5/21/2
f 5/21/3 152/7/3 153/285/3 2/39/3
f 2/94/1 153/289/1 151/288/1 1/95/1
f 24/110/5 150/72/5 148/71/5 20/107/5
f 20/46/3 148/86/3 147/85/3 18/47/3
f 18/26/4 147/60/4 145/59/4 16/18/4
f 16/18/3 145/59/3 146/82/3 14/19/3
f 14/75/5 146/64/5 144/63/5 13/76/5
f 74/308/3 78/69/3 150/72/3 157/309/3
f 165/310/3 24/110/3 66/109/3 69/311/3
f 24/110/3 165/310/3 157/309/3 150/72/3
f 166/312/3 137/16/3 143/15/3 22/89/3
f 73/313/3 166/312/3 22/89/3 77/122/3
f 167/314/3 23/104/3 67/103/3 79/315/3
f 149/65/3 164/68/3 23/104/3 167/314/3
f 168/316/3 21/120/3 76/119/3 71/317/3
f 163/295/3 156/4/3 21/120/3 168/316/3
f 79/238/8 80/150/8 176/318/8 175/319/8
f 69/199/6 70/267/6 170/320/6 169/321/6
f 70/294/2 163/295/2 180/322/2 170/323/2
f 167/314/5 79/315/5 175/324/5 183/325/5
f 149/65/5 167/314/5 183/325/5 178/326/5
f 71/181/9 72/170/9 172/327/9 171/328/9
f 165/310/4 69/311/4 169/329/4 181/330/4
f 73/249/7 74/248/7 174/331/7 173/332/7
f 157/309/4 165/310/4 181/330/4 179/333/4
f 168/316/2 71/317/2 171/334/2 184/335/2
f 163/295/2 168/316/2 184/335/2 180/322/2
f 137/16/1 166/312/1 182/336/1 177/337/1
f 74/308/4 157/309/4 179/333/4 174/338/4
f 72/66/5 149/65/5 178/326/5 172/339/5
f 166/312/1 73/313/1 173/340/1 182/336/1
f 80/13/1 137/16/1 177/337/1 176/341/1
f 131/342/3 136/343/3 180/344/3 184/345/3
f 170/346/3 180/344/3 136/343/3 169/347/3
f 172/348/3 178/349/3 129/350/3 171/351/3
f 176/352/3 177/353/3 135/354/3 175/355/3
f 174/356/3 179/357/3 134/358/3 173/359/3
f 133/360/3 182/361/3 173/359/3 134/358/3
f 133/360/3 135/354/3 177/353/3 182/361/3
f 130/362/3 183/363/3 175/355/3 135/354/3
f 130/362/3 129/350/3 178/349/3 183/363/3
f 131/342/3 184/345/3 171/351/3 129/350/3
f 132/364/3 181/365/3 169/347/3 136/343/3
f 132/364/3 134/358/3 179/357/3 181/365/3
f 186/283/3 185/366/3 189/367/3 193/368/3
f 191/278/3 192/277/3 186/283/3 193/368/3
f 187/274/3 188/273/3 191/278/3 193/368/3
f 193/368/3 189/367/3 190/280/3 187/274/3
f 134/369/5 132/275/5 191/278/5 188/273/5
f 129/370/4 130/371/4 189/367/4 185/366/4
f 130/371/4 135/372/4 190/280/4 189/367/4
f 131/282/1 129/373/1 185/366/1 186/283/1

# 184 faces
