# Wavefront Obj file
# 
# verts: 185 uv-s: 353
mtllib Floor.01.mtl

g Floor.01
#pivot 0.000000 0.000000 0.000000

v 0.000000 0.000000 -5.000000
v 0.000000 0.500000 -5.000000
v 0.000000 0.000000 5.000000
v 0.000000 0.500000 5.000000
v 0.000000 0.500000 -4.500000
v 0.000000 0.500000 4.500000
v 0.000000 0.400000 -4.500000
v 0.000000 0.400000 4.500000
v 0.000000 0.400000 -4.250000
v 0.000000 0.400000 4.250000
v -5.000000 0.000000 0.000000
v -5.000000 0.500000 0.000000
v 5.000000 0.000000 0.000000
v 5.000000 0.500000 0.000000
v -4.500000 0.500000 0.000000
v 4.500000 0.500000 0.000000
v -4.500000 0.400000 0.000000
v 4.500000 0.400000 0.000000
v -4.250000 0.400000 0.000000
v 4.250000 0.400000 0.000000
v 0.000000 0.500000 -4.250000
v 0.000000 0.500000 4.250000
v -4.250000 0.500000 0.000000
v 4.250000 0.500000 0.000000
v -4.495043 0.000000 5.000000
v -5.000000 0.000000 4.495043
v -3.995043 0.500000 4.500000
v -4.500000 0.500000 3.995043
v -5.000000 0.000000 -4.495043
v -4.495043 0.000000 -5.000000
v -4.500000 0.500000 -3.995043
v -3.995043 0.500000 -4.500000
v 5.000000 0.000000 4.495043
v 4.495043 0.000000 5.000000
v 4.500000 0.500000 3.995043
v 3.995043 0.500000 4.500000
v 4.495043 0.000000 -5.000000
v 5.000000 0.000000 -4.495043
v 3.995043 0.500000 -4.500000
v 4.500000 0.500000 -3.995043
v -4.495043 0.500000 5.000000
v -5.000000 0.500000 4.495043
v -5.000000 0.500000 -4.495043
v -4.495043 0.500000 -5.000000
v 4.495043 0.500000 -5.000000
v 5.000000 0.500000 -4.495043
v 5.000000 0.500000 4.495043
v 4.495043 0.500000 5.000000
v -3.995043 0.400000 4.500000
v -4.500000 0.400000 3.995043
v -4.500000 0.400000 -3.995043
v -3.995043 0.400000 -4.500000
v 3.995043 0.400000 -4.500000
v 4.500000 0.400000 -3.995043
v 4.500000 0.400000 3.995043
v 3.995043 0.400000 4.500000
v -3.745043 0.400000 4.250000
v -4.250000 0.400000 3.745043
v 3.745043 0.400000 -4.250000
v 4.250000 0.400000 -3.745043
v -4.250000 0.400000 -3.745043
v -3.745043 0.400000 -4.250000
v 4.250000 0.400000 3.745043
v 3.745043 0.400000 4.250000
v 3.745043 0.500000 -4.250000
v 4.250000 0.500000 -3.745043
v -4.250000 0.500000 3.745043
v -3.745043 0.500000 4.250000
v 4.000000 0.500000 -3.500000
v 3.500000 0.500000 -4.000000
v -3.500000 0.500000 -4.000000
v -4.000000 0.500000 -3.500000
v 3.500000 0.500000 4.000000
v 4.000000 0.500000 3.500000
v -4.250000 0.500000 -3.745043
v -3.745043 0.500000 -4.250000
v 3.745043 0.500000 4.250000
v 4.250000 0.500000 3.745043
v -4.000000 0.500000 3.500000
v -3.500000 0.500000 4.000000
v -4.445539 0.590000 4.849504
v -4.849504 0.590000 4.445539
v -4.849504 0.590000 -4.445539
v -4.445539 0.590000 -4.849504
v 4.445539 0.590000 -4.849504
v 4.849504 0.590000 -4.445539
v 4.849504 0.590000 4.445539
v 4.445539 0.590000 4.849504
v -4.045539 0.590000 4.449504
v -4.449504 0.590000 4.045539
v -4.449504 0.590000 -4.045539
v -4.045539 0.590000 -4.449504
v 4.045539 0.590000 -4.449504
v 4.449504 0.590000 -4.045539
v 4.449504 0.590000 4.045539
v 4.045539 0.590000 4.449504
v 4.045539 0.510000 -4.449504
v 4.449504 0.510000 -4.045539
v 4.449504 0.510000 4.045539
v 4.045539 0.510000 4.449504
v -4.045539 0.510000 4.449504
v -4.449504 0.510000 4.045539
v -4.449504 0.510000 -4.045539
v -4.045539 0.510000 -4.449504
v -3.845539 0.510000 4.249504
v -4.249504 0.510000 3.845539
v 3.845539 0.510000 -4.249504
v 4.249504 0.510000 -3.845539
v -4.249504 0.510000 -3.845539
v -3.845539 0.510000 -4.249504
v 4.249504 0.510000 3.845539
v 3.845539 0.510000 4.249504
v -4.249504 0.590000 -3.845539
v -3.845539 0.590000 -4.249504
v 3.845539 0.590000 -4.249504
v 4.249504 0.590000 -3.845539
v 4.049504 0.590000 3.645539
v 3.645539 0.590000 4.049504
v 3.845539 0.590000 4.249504
v 4.249504 0.590000 3.845539
v 3.645539 0.590000 -4.049504
v 4.049504 0.590000 -3.645539
v -4.049504 0.590000 -3.645539
v -3.645539 0.590000 -4.049504
v -4.249504 0.590000 3.845539
v -3.845539 0.590000 4.249504
v -3.645539 0.590000 4.049504
v -4.049504 0.590000 3.645539
v -3.500000 0.400000 -3.500000
v -3.500000 0.400000 0.000000
v 0.000000 0.400000 -3.500000
v 3.500000 0.400000 0.000000
v 0.000000 0.400000 3.500000
v 3.500000 0.400000 3.500000
v -3.500000 0.400000 3.500000
v 3.500000 0.400000 -3.500000
v 0.000000 0.400000 0.000000
v -3.000000 0.500000 4.000000
v -3.997521 0.000000 5.000000
v -3.497522 0.500000 4.500000
v -3.997521 0.500000 5.000000
v -3.497522 0.400000 4.500000
v -3.247522 0.400000 4.250000
v -3.247522 0.500000 4.250000
v 5.000000 0.000000 3.997521
v 4.500000 0.500000 3.497522
v 5.000000 0.500000 3.997521
v 4.500000 0.400000 3.497522
v 4.250000 0.400000 3.247522
v -4.000000 0.500000 -3.000000
v 4.250000 0.500000 3.247522
v 3.997521 0.000000 -5.000000
v 3.497522 0.500000 -4.500000
v 3.997521 0.500000 -5.000000
v 3.497522 0.400000 -4.500000
v 3.247522 0.400000 -4.250000
v 3.247522 0.500000 -4.250000
v 4.000000 0.500000 3.000000
v -5.000000 0.000000 -3.997521
v -4.500000 0.500000 -3.497522
v -5.000000 0.500000 -3.997521
v -4.500000 0.400000 -3.497522
v -4.250000 0.400000 -3.247522
v 3.000000 0.500000 -4.000000
v -4.250000 0.500000 -3.247522
v 4.000000 0.500000 0.000000
v 0.000000 0.500000 4.000000
v -4.000000 0.500000 0.000000
v 0.000000 0.500000 -4.000000
v 4.000000 0.400000 -3.500000
v 3.500000 0.400000 -4.000000
v -3.500000 0.400000 -4.000000
v -4.000000 0.400000 -3.500000
v 3.500000 0.400000 4.000000
v 4.000000 0.400000 3.500000
v -4.000000 0.400000 3.500000
v -3.500000 0.400000 4.000000
v -3.000000 0.400000 4.000000
v -4.000000 0.400000 -3.000000
v 4.000000 0.400000 3.000000
v 3.000000 0.400000 -4.000000
v 4.000000 0.400000 0.000000
v 0.000000 0.400000 4.000000
v -4.000000 0.400000 0.000000
v 0.000000 0.400000 -4.000000
# 185 positions

vt 0.487026 0.835578
vt 0.487023 0.842076
vt 0.454695 0.842064
vt 0.454697 0.835566
vt 0.552016 0.600638
vt 0.552014 0.607136
vt 0.519684 0.607125
vt 0.519686 0.600627
vt 0.503277 0.949635
vt 0.519516 0.965886
vt 0.487187 0.965874
vt 0.470948 0.949624
vt 0.016248 0.925251
vt 0.000325 0.909006
vt 0.032654 0.909006
vt 0.048737 0.925251
vt 0.551994 0.593315
vt 0.292411 0.593227
vt 0.292422 0.560737
vt 0.584494 0.560838
vt 0.292407 0.607048
vt 0.032824 0.606960
vt 0.032826 0.600462
vt 0.292409 0.600550
vt 0.551992 0.599813
vt 0.292409 0.599725
vt 0.292411 0.672879
vt 0.551994 0.672967
vt 0.551992 0.679465
vt 0.292409 0.679377
vt 0.292407 0.527396
vt 0.032824 0.527308
vt 0.032826 0.520810
vt 0.292409 0.520898
vt 0.292396 0.559886
vt 0.000325 0.559785
vt 0.292422 0.640389
vt 0.584494 0.640490
vt 0.292396 0.639538
vt 0.000325 0.639437
vt 0.016575 0.949467
vt 0.259925 0.949551
vt 0.259920 0.965796
vt 0.000325 0.965706
vt 0.503271 0.982780
vt 0.259921 0.982780
vt 0.259921 0.966536
vt 0.519516 0.966535
vt 0.503271 0.999675
vt 0.259921 0.999675
vt 0.259921 0.983430
vt 0.519516 0.983430
vt 0.016575 0.932399
vt 0.259925 0.932483
vt 0.259920 0.948727
vt 0.000325 0.948638
vt 0.032802 0.599637
vt 0.032805 0.593139
vt 0.065135 0.593150
vt 0.065133 0.599648
vt 0.000325 0.778883
vt 0.000325 0.746393
vt 0.032654 0.746394
vt 0.032654 0.778883
vt 0.438611 0.849224
vt 0.471101 0.849224
vt 0.487024 0.865469
vt 0.454695 0.865469
vt 0.000325 0.879115
vt 0.000325 0.872617
vt 0.032653 0.872617
vt 0.032653 0.879115
vt 0.584496 0.746394
vt 0.584496 0.778883
vt 0.292410 0.778883
vt 0.292410 0.746394
vt 0.584496 0.779533
vt 0.584496 0.812023
vt 0.292410 0.812023
vt 0.292410 0.779533
vt 0.000325 0.560636
vt 0.032655 0.560647
vt 0.016570 0.982780
vt 0.000325 0.966535
vt 0.032654 0.966536
vt 0.048898 0.982780
vt 0.065135 0.672802
vt 0.032655 0.640299
vt 0.243675 0.909006
vt 0.032654 0.902508
vt 0.243675 0.902508
vt 0.584496 0.680114
vt 0.584496 0.712604
vt 0.292410 0.712604
vt 0.292410 0.680115
vt 0.048898 0.999675
vt 0.032654 0.983430
vt 0.065132 0.679300
vt 0.032654 0.812023
vt 0.032654 0.779533
vt 0.243673 0.871967
vt 0.000325 0.871966
vt 0.000325 0.865468
vt 0.243673 0.865468
vt 0.032802 0.679289
vt 0.032805 0.672791
vt 0.243675 0.872617
vt 0.487023 0.872617
vt 0.487023 0.879115
vt 0.243675 0.879115
vt 0.000325 0.812023
vt 0.000325 0.779533
vt 0.000325 0.640288
vt 0.016570 0.999675
vt 0.000325 0.983430
vt 0.000325 0.902508
vt 0.243673 0.841992
vt 0.000325 0.841908
vt 0.000327 0.835410
vt 0.243675 0.835494
vt 0.487024 0.902508
vt 0.487024 0.909006
vt 0.562551 0.267058
vt 0.562551 0.234568
vt 0.608954 0.234568
vt 0.608954 0.267058
vt 0.608954 0.300847
vt 0.608954 0.333337
vt 0.562551 0.333337
vt 0.562551 0.300847
vt 0.562551 0.300197
vt 0.562551 0.267708
vt 0.608954 0.267708
vt 0.608954 0.300197
vt 0.520810 0.509740
vt 0.520810 0.477250
vt 0.567213 0.477250
vt 0.567213 0.509740
vt 0.520810 0.061890
vt 0.570389 0.063563
vt 0.567047 0.071716
vt 0.532529 0.069680
vt 0.555255 0.301259
vt 0.561902 0.295239
vt 0.560641 0.308542
vt 0.555376 0.310956
vt 0.521064 0.114088
vt 0.532154 0.106359
vt 0.527080 0.240427
vt 0.554727 0.239597
vt 0.544071 0.247551
vt 0.526302 0.249721
vt 0.562551 0.356960
vt 0.562551 0.333986
vt 0.571073 0.333986
vt 0.571073 0.352365
vt 0.525177 0.126090
vt 0.520810 0.118068
vt 0.531342 0.123774
vt 0.533329 0.129431
vt 0.527457 0.409909
vt 0.520810 0.415930
vt 0.522071 0.402627
vt 0.527336 0.400212
vt 0.578411 0.055853
vt 0.528832 0.054180
vt 0.532173 0.046027
vt 0.566692 0.048063
vt 0.527080 0.361768
vt 0.554727 0.360938
vt 0.544071 0.368892
vt 0.526302 0.371062
vt 0.616718 0.333986
vt 0.616718 0.356960
vt 0.608196 0.352365
vt 0.608196 0.333986
vt 0.528436 0.004566
vt 0.578157 0.003655
vt 0.567067 0.011384
vt 0.531237 0.012410
vt 0.554828 0.410952
vt 0.543639 0.403162
vt 0.525177 0.184340
vt 0.520810 0.176318
vt 0.531342 0.182024
vt 0.533329 0.187681
vt 0.520810 0.355909
vt 0.521819 0.368655
vt 0.579032 0.176318
vt 0.574791 0.183944
vt 0.566946 0.186745
vt 0.568921 0.181678
vt 0.616718 0.404857
vt 0.616718 0.427830
vt 0.608196 0.423236
vt 0.608196 0.404857
vt 0.523504 0.175668
vt 0.531294 0.163950
vt 0.527883 0.300216
vt 0.539073 0.308007
vt 0.584496 0.713254
vt 0.584496 0.745744
vt 0.292410 0.745744
vt 0.292410 0.713254
vt 0.567984 0.105333
vt 0.567973 0.222575
vt 0.531294 0.222200
vt 0.566946 0.128495
vt 0.567973 0.164325
vt 0.568921 0.123428
vt 0.526170 0.010436
vt 0.526516 0.048015
vt 0.572705 0.069728
vt 0.573051 0.107307
vt 0.608196 0.362205
vt 0.608196 0.380584
vt 0.571073 0.380584
vt 0.571073 0.362205
vt 0.608196 0.385828
vt 0.608196 0.404207
vt 0.571073 0.404207
vt 0.571073 0.385828
vt 0.571073 0.423236
vt 0.571073 0.404857
vt 0.560893 0.342514
vt 0.556410 0.340107
vt 0.539073 0.429347
vt 0.555376 0.432297
vt 0.556409 0.461448
vt 0.538641 0.463617
vt 0.538641 0.342276
vt 0.543639 0.281821
vt 0.527336 0.278871
vt 0.522071 0.281286
vt 0.521819 0.247314
vt 0.560893 0.463855
vt 0.560641 0.429883
vt 0.554829 0.289612
vt 0.579032 0.118068
vt 0.574791 0.125694
vt 0.561902 0.355259
vt 0.555632 0.349401
vt 0.616718 0.357610
vt 0.616718 0.380584
vt 0.527457 0.288568
vt 0.575702 0.233664
vt 0.523504 0.233918
vt 0.527985 0.471572
vt 0.527883 0.421557
vt 0.570785 0.113177
vt 0.562551 0.380584
vt 0.562551 0.357610
vt 0.520810 0.294589
vt 0.520810 0.000325
vt 0.555255 0.422600
vt 0.520810 0.234568
vt 0.520810 0.058547
vt 0.616718 0.381233
vt 0.616718 0.404207
vt 0.561902 0.476600
vt 0.555632 0.470742
vt 0.578411 0.059196
vt 0.562551 0.404207
vt 0.562551 0.381233
vt 0.561902 0.416580
vt 0.575702 0.175414
vt 0.527985 0.350231
vt 0.578411 0.117418
vt 0.562551 0.427830
vt 0.562551 0.404857
vt 0.260243 0.487671
vt 0.032815 0.487671
vt 0.032815 0.260243
vt 0.260243 0.260243
vt 0.487671 0.260243
vt 0.487671 0.487671
vt 0.260243 0.032815
vt 0.487671 0.032815
vt 0.032815 0.032815
vt 0.584494 0.639639
vt 0.552164 0.639628
vt 0.000325 0.712604
vt 0.000325 0.680114
vt 0.032654 0.680114
vt 0.032654 0.712604
vt 0.000325 0.745744
vt 0.000325 0.713254
vt 0.032654 0.713254
vt 0.032654 0.745744
vt 0.471109 0.819327
vt 0.438619 0.819316
vt 0.552014 0.527484
vt 0.584494 0.559987
vt 0.552164 0.559975
vt 0.519684 0.527473
vt 0.487024 0.871967
vt 0.454695 0.871967
vt 0.552016 0.520986
vt 0.519686 0.520975
vt 0.503277 0.932567
vt 0.519516 0.948817
vt 0.487187 0.948806
vt 0.470948 0.932556
vt 0.016248 0.895360
vt 0.048737 0.895360
vt 0.243675 0.895360
vt 0.471101 0.895360
vt 0.243675 0.925251
vt 0.471101 0.925251
vt 0.243673 0.849224
vt 0.016248 0.849223
vt 0.243681 0.819249
vt 0.016255 0.819170
vt 0.561800 0.239582
vt 0.561902 0.289597
vt 0.520912 0.350245
vt 0.520810 0.300230
vt 0.438621 0.812818
vt 0.471111 0.812829
vt 0.016248 0.842725
vt 0.243673 0.842726
vt 0.438611 0.842726
vt 0.561800 0.360923
vt 0.561902 0.410938
vt 0.471101 0.901858
vt 0.243675 0.901858
vt 0.520912 0.471586
vt 0.520810 0.421571
vt 0.048737 0.901858
vt 0.016258 0.812672
vt 0.243683 0.812751
vt 0.243675 0.931749
vt 0.048737 0.931749
vt 0.016248 0.901858
vt 0.471101 0.842726
vt 0.471101 0.931749
vt 0.016248 0.931749
vt 0.455181 0.520160
vt 0.260243 0.520160
vt 0.487671 0.520160
vt 0.520160 0.487671
vt 0.000325 0.487671
vt 0.000325 0.455181
vt 0.032815 0.520160
vt 0.032815 0.000325
vt 0.065304 0.000325
vt 0.000325 0.032815
vt 0.520160 0.032815
vt 0.520160 0.065304
vt 0.487671 0.000325
vt 0.260243 0.000325
vt 0.000325 0.260243
vt 0.520160 0.260243
# 353 texture coordinates

vn 0.000000 0.000000 -1.000000
vn 0.000000 0.000000 1.000000
vn 0.000000 1.000000 0.000000
vn -1.000000 0.000000 0.000000
vn 1.000000 0.000000 0.000000
vn -0.707107 0.000000 0.707107
vn -0.707107 0.000000 -0.707107
vn 0.707107 0.000000 -0.707107
vn 0.707107 0.000000 0.707107
vn 0.553918 0.621570 0.553918
vn 0.999988 0.000000 -0.004935
vn -0.379642 0.843649 0.379642
vn 0.560525 0.615229 0.554350
vn -0.593086 0.544517 -0.593086
vn -0.004935 0.000000 -0.999988
vn 0.553918 0.621570 -0.553918
vn -0.554350 0.615229 0.560525
vn 0.593086 0.544517 0.593086
vn -0.553918 0.621570 0.553918
vn 0.560525 0.615230 -0.554350
vn 0.379642 0.843649 0.379642
vn -0.999988 0.000000 -0.004935
vn 0.386434 0.837459 0.386434
vn 0.593086 0.544517 -0.593086
vn -0.553918 0.621570 -0.553918
vn 0.554350 0.615230 0.560525
vn 0.386434 0.837459 -0.386434
vn 0.004935 0.000000 -0.999988
vn -0.554350 0.615230 -0.560525
vn -0.379642 0.843649 -0.379642
vn -0.386434 0.837459 -0.386434
vn -0.999988 0.000000 0.004935
vn -0.560525 0.615230 0.554350
vn -0.004935 0.000000 0.999988
vn 0.999988 0.000000 0.004935
vn 0.554350 0.615229 -0.560525
vn -0.593086 0.544517 0.593086
vn 0.004935 0.000000 0.999988
vn 0.379642 0.843649 -0.379642
vn -0.560525 0.615229 -0.554350
vn -0.386434 0.837459 0.386434
# 41 normals

usemtl Floor.01.UV
f 65/1/1 59/2/1 156/3/1 157/4/1
f 53/5/2 39/6/2 153/7/2 155/8/2
f 59/9/3 53/10/3 155/11/3 156/12/3
f 80/13/3 68/14/3 144/15/3 138/16/3
f 40/17/3 16/18/3 14/19/3 46/20/3
f 5/21/2 32/22/2 52/23/2 7/24/2
f 16/18/4 40/17/4 54/25/4 18/26/4
f 6/27/1 36/28/1 56/29/1 8/30/1
f 15/31/5 28/32/5 50/33/5 17/34/5
f 28/32/3 15/31/3 12/35/3 42/36/3
f 36/28/3 6/27/3 4/37/3 48/38/3
f 32/22/3 5/21/3 2/39/3 44/40/3
f 62/41/3 9/42/3 7/43/3 52/44/3
f 60/45/3 20/46/3 18/47/3 54/48/3
f 64/49/3 10/50/3 8/51/3 56/52/3
f 58/53/3 19/54/3 17/55/3 50/56/3
f 55/57/4 35/58/4 146/59/4 148/60/4
f 47/61/5 33/62/5 145/63/5 147/64/5
f 150/65/3 72/66/3 75/67/3 165/68/3
f 78/69/5 63/70/5 149/71/5 151/72/5
f 38/73/5 46/74/5 14/75/5 13/76/5
f 34/77/2 48/78/2 4/79/2 3/80/2
f 35/58/3 47/81/3 147/82/3 146/59/3
f 63/83/3 55/84/3 148/85/3 149/86/3
f 6/27/3 140/87/3 141/88/3 4/37/3
f 22/89/2 144/15/2 143/90/2 10/91/2
f 30/92/1 44/93/1 2/94/1 1/95/1
f 10/50/3 143/96/3 142/97/3 8/51/3
f 8/30/1 142/98/1 140/87/1 6/27/1
f 4/79/2 141/99/2 139/100/2 3/80/2
f 19/101/4 58/102/4 67/103/4 23/104/4
f 49/105/1 27/106/1 140/87/1 142/98/1
f 20/107/5 60/108/5 66/109/5 24/110/5
f 41/111/2 25/112/2 139/100/2 141/99/2
f 27/106/3 41/113/3 141/88/3 140/87/3
f 57/114/3 49/115/3 142/97/3 143/96/3
f 68/14/2 57/116/2 143/90/2 144/15/2
f 9/117/1 62/118/1 76/119/1 21/120/1
f 10/91/2 64/121/2 77/122/2 22/89/2
f 25/123/6 41/124/6 42/125/6 26/126/6
f 44/127/7 30/128/7 29/129/7 43/130/7
f 46/131/8 38/132/8 37/133/8 45/134/8
f 48/135/9 34/136/9 33/137/9 47/138/9
f 41/139/10 27/140/10 89/141/10 81/142/10
f 66/143/11 60/144/11 108/145/11 116/146/11
f 42/147/12 41/139/12 81/142/12 82/148/12
f 68/149/13 80/150/13 127/151/13 126/152/13
f 58/153/14 50/154/14 102/155/14 106/156/14
f 39/157/6 53/158/6 97/159/6 93/160/6
f 76/161/15 62/162/15 110/163/15 114/164/15
f 47/165/16 35/166/16 95/167/16 87/168/16
f 75/169/17 72/170/17 123/171/17 113/172/17
f 49/173/18 57/174/18 105/175/18 101/176/18
f 36/177/19 48/178/19 88/179/19 96/180/19
f 71/181/20 76/161/20 114/164/20 124/182/20
f 31/183/9 51/184/9 103/185/9 91/186/9
f 48/178/21 47/165/21 87/168/21 88/179/21
f 61/187/22 75/169/22 113/172/22 109/188/22
f 72/170/23 71/181/23 124/182/23 123/171/23
f 52/189/9 32/190/9 92/191/9 104/192/9
f 55/193/24 63/194/24 111/195/24 99/196/24
f 45/197/25 39/157/25 93/160/25 85/198/25
f 69/199/26 66/143/26 116/146/26 122/200/26
f 26/201/4 42/202/4 12/203/4 11/204/4
f 81/142/3 89/141/3 90/205/3 82/148/3
f 92/191/3 84/206/3 83/207/3 91/186/3
f 94/208/3 86/209/3 85/198/3 93/160/3
f 96/180/3 88/179/3 87/168/3 95/167/3
f 93/160/6 97/159/6 98/210/6 94/208/6
f 100/211/7 96/180/7 95/167/7 99/212/7
f 89/141/8 101/213/8 102/214/8 90/205/8
f 104/192/9 92/191/9 91/186/9 103/185/9
f 101/176/3 105/175/3 106/156/3 102/155/3
f 108/215/3 98/216/3 97/217/3 107/218/3
f 110/219/3 104/220/3 103/221/3 109/222/3
f 112/223/3 100/224/3 99/196/3 111/195/3
f 109/188/7 113/172/7 114/164/7 110/163/7
f 116/146/8 108/145/8 107/225/8 115/226/8
f 118/227/3 119/228/3 120/229/3 117/230/3
f 115/226/3 121/231/3 122/200/3 116/146/3
f 124/182/3 114/164/3 113/172/3 123/171/3
f 126/152/3 127/151/3 128/232/3 125/233/3
f 125/233/6 106/234/6 105/235/6 126/152/6
f 111/236/9 120/229/9 119/228/9 112/237/9
f 80/150/27 79/238/27 128/232/27 127/151/27
f 54/239/6 40/240/6 94/208/6 98/210/6
f 59/241/28 65/242/28 115/226/28 107/225/28
f 60/243/18 54/244/18 98/216/18 108/215/18
f 79/238/29 67/245/29 125/233/29 128/232/29
f 44/246/30 43/247/30 83/207/30 84/206/30
f 74/248/31 73/249/31 118/227/31 117/230/31
f 28/250/25 42/147/25 82/148/25 90/205/25
f 53/251/14 59/252/14 107/218/14 97/217/14
f 67/245/32 58/253/32 106/234/32 125/233/32
f 56/254/7 36/177/7 96/180/7 100/211/7
f 73/249/33 77/255/33 119/228/33 118/227/33
f 57/256/34 68/149/34 126/152/34 105/235/34
f 35/166/7 55/257/7 99/212/7 95/167/7
f 32/190/16 44/246/16 84/206/16 92/191/16
f 62/258/24 52/259/24 104/220/24 110/219/24
f 63/260/35 78/261/35 120/229/35 111/236/35
f 27/140/8 49/262/8 101/213/8 89/141/8
f 78/261/36 74/248/36 117/230/36 120/229/36
f 43/247/19 31/183/19 91/186/19 83/207/19
f 51/263/37 61/264/37 109/222/37 103/221/37
f 77/255/38 64/265/38 112/237/38 119/228/38
f 46/266/39 45/197/39 85/198/39 86/209/39
f 65/242/40 70/267/40 121/231/40 115/226/40
f 50/268/8 28/250/8 90/205/8 102/214/8
f 70/267/41 69/199/41 122/200/41 121/231/41
f 40/240/10 46/266/10 86/209/10 94/208/10
f 64/269/37 56/270/37 100/224/37 112/223/37
f 131/271/3 129/272/3 130/273/3 137/274/3
f 132/275/3 136/276/3 131/271/3 137/274/3
f 133/277/3 134/278/3 132/275/3 137/274/3
f 137/274/3 130/273/3 135/279/3 133/277/3
f 39/6/3 45/280/3 154/281/3 153/7/3
f 45/282/1 37/283/1 152/284/1 154/285/1
f 43/286/4 29/287/4 159/288/4 161/289/4
f 70/290/3 65/1/3 157/4/3 164/291/3
f 31/292/3 43/293/3 161/294/3 160/295/3
f 75/67/4 61/296/4 163/297/4 165/68/4
f 51/298/5 31/292/5 160/295/5 162/299/5
f 61/300/3 51/301/3 162/302/3 163/303/3
f 23/104/4 165/68/4 163/297/4 19/101/4
f 19/54/3 163/303/3 162/302/3 17/55/3
f 17/34/5 162/299/5 160/295/5 15/31/5
f 15/31/3 160/295/3 161/294/3 12/35/3
f 12/203/4 161/289/4 159/288/4 11/204/4
f 21/120/1 157/4/1 156/3/1 9/117/1
f 9/42/3 156/12/3 155/11/3 7/43/3
f 7/24/2 155/8/2 153/7/2 5/21/2
f 5/21/3 153/7/3 154/281/3 2/39/3
f 2/94/1 154/285/1 152/284/1 1/95/1
f 24/110/5 151/72/5 149/71/5 20/107/5
f 20/46/3 149/86/3 148/85/3 18/47/3
f 18/26/4 148/60/4 146/59/4 16/18/4
f 16/18/3 146/59/3 147/82/3 14/19/3
f 14/75/5 147/64/5 145/63/5 13/76/5
f 74/304/3 78/69/3 151/72/3 158/305/3
f 166/306/3 24/110/3 66/109/3 69/307/3
f 24/110/3 166/306/3 158/305/3 151/72/3
f 167/308/3 138/16/3 144/15/3 22/89/3
f 73/309/3 167/308/3 22/89/3 77/122/3
f 168/310/3 23/104/3 67/103/3 79/311/3
f 150/65/3 165/68/3 23/104/3 168/310/3
f 169/312/3 21/120/3 76/119/3 71/313/3
f 164/291/3 157/4/3 21/120/3 169/312/3
f 79/238/8 80/150/8 177/314/8 176/315/8
f 69/199/6 70/267/6 171/316/6 170/317/6
f 70/290/2 164/291/2 181/318/2 171/319/2
f 168/310/5 79/311/5 176/320/5 184/321/5
f 150/65/5 168/310/5 184/321/5 179/322/5
f 71/181/9 72/170/9 173/323/9 172/324/9
f 166/306/4 69/307/4 170/325/4 182/326/4
f 73/249/7 74/248/7 175/327/7 174/328/7
f 158/305/4 166/306/4 182/326/4 180/329/4
f 169/312/2 71/313/2 172/330/2 185/331/2
f 164/291/2 169/312/2 185/331/2 181/318/2
f 138/16/1 167/308/1 183/332/1 178/333/1
f 74/304/4 158/305/4 180/329/4 175/334/4
f 72/66/5 150/65/5 179/322/5 173/335/5
f 167/308/1 73/309/1 174/336/1 183/332/1
f 80/13/1 138/16/1 178/333/1 177/337/1
f 131/271/3 136/276/3 181/338/3 185/339/3
f 171/340/3 181/338/3 136/276/3 170/341/3
f 173/342/3 179/343/3 129/272/3 172/344/3
f 177/345/3 178/346/3 135/279/3 176/347/3
f 175/348/3 180/349/3 134/278/3 174/350/3
f 133/277/3 183/351/3 174/350/3 134/278/3
f 133/277/3 135/279/3 178/346/3 183/351/3
f 130/273/3 184/352/3 176/347/3 135/279/3
f 130/273/3 129/272/3 179/343/3 184/352/3
f 131/271/3 185/339/3 172/344/3 129/272/3
f 132/275/3 182/353/3 170/341/3 136/276/3
f 132/275/3 134/278/3 180/349/3 182/353/3

# 176 faces
